# Blender 4.2.2 LTS
# www.blender.org
mtllib Cylinder.mtl
o Cylinder
v -0.999352 0.000532 0.180913
v -0.999352 0.000532 -0.182723
v -0.980137 -0.194558 0.180913
v -0.980137 -0.194558 -0.182723
v -0.923231 -0.382151 0.180913
v -0.923231 -0.382151 -0.182723
v -0.830821 -0.555038 0.180913
v -0.830821 -0.555038 -0.182723
v -0.706458 -0.706575 0.180913
v -0.706458 -0.706575 -0.182723
v -0.554922 -0.830938 0.180913
v -0.554922 -0.830938 -0.182723
v -0.382035 -0.923347 0.180913
v -0.382035 -0.923347 -0.182723
v -0.194442 -0.980253 0.180913
v -0.194442 -0.980253 -0.182723
v 0.000648 -0.999468 0.180913
v 0.000648 -0.999468 -0.182723
v 0.195739 -0.980253 0.180913
v 0.195739 -0.980253 -0.182723
v 0.383332 -0.923347 0.180913
v 0.383332 -0.923347 -0.182723
v 0.556219 -0.830938 0.180913
v 0.556219 -0.830938 -0.182723
v 0.707755 -0.706575 0.180913
v 0.687008 -0.723601 -0.153760
v 0.832118 -0.555038 0.180913
v 0.832118 -0.555038 -0.182723
v 0.924528 -0.382151 0.180913
v 0.924528 -0.382151 -0.182723
v 0.981434 -0.194558 0.180913
v 0.981434 -0.194558 -0.182723
v 1.000648 0.000532 0.180913
v 1.000648 0.000532 -0.182724
v 0.981434 0.195622 0.180913
v 0.981434 0.195622 -0.182724
v 0.924528 0.383216 0.180913
v 0.924528 0.383216 -0.182724
v 0.832118 0.556102 0.180913
v 0.832118 0.556102 -0.182724
v 0.707755 0.707639 0.180913
v 0.707755 0.707639 -0.182724
v 0.556219 0.832002 0.180913
v 0.556219 0.832002 -0.182724
v 0.383332 0.924412 0.180913
v 0.383332 0.924412 -0.182724
v 0.195739 0.981317 0.180913
v 0.195739 0.981317 -0.182724
v 0.000648 1.000532 0.180913
v 0.000648 1.000532 -0.182724
v -0.194442 0.981317 0.180913
v -0.194442 0.981317 -0.182723
v -0.382035 0.924412 0.180913
v -0.382035 0.924412 -0.182723
v -0.554922 0.832002 0.180913
v -0.575669 0.814975 -0.153760
v -0.706458 0.707639 0.180913
v -0.706458 0.707639 -0.182723
v -0.830821 0.556102 0.180913
v -0.830821 0.556102 -0.182723
v -0.923231 0.383216 0.180913
v -0.923231 0.383216 -0.182723
v -0.980137 0.195622 0.180913
v -0.980137 0.195622 -0.182723
vn -0.9952 -0.0980 -0.0000
vn -0.9569 -0.2903 -0.0000
vn -0.8819 -0.4714 -0.0000
vn -0.7730 -0.6344 -0.0000
vn -0.6344 -0.7730 -0.0000
vn -0.4714 -0.8819 -0.0000
vn -0.2903 -0.9569 -0.0000
vn -0.0980 -0.9952 -0.0000
vn 0.0980 -0.9952 -0.0000
vn 0.2903 -0.9569 -0.0000
vn 0.4714 -0.8819 -0.0000
vn 0.6344 -0.7730 -0.0000
vn 0.7647 -0.6444 -0.0070
vn 0.8819 -0.4714 -0.0000
vn 0.9569 -0.2903 -0.0000
vn 0.9952 -0.0980 -0.0000
vn 0.9952 0.0980 -0.0000
vn 0.9569 0.2903 -0.0000
vn 0.8819 0.4714 -0.0000
vn 0.7730 0.6344 -0.0000
vn 0.6344 0.7730 -0.0000
vn 0.4714 0.8819 -0.0000
vn 0.2903 0.9569 -0.0000
vn 0.0980 0.9952 -0.0000
vn -0.0980 0.9952 -0.0000
vn -0.2903 0.9569 -0.0000
vn -0.4828 0.8757 -0.0070
vn -0.6344 0.7730 -0.0000
vn -0.7730 0.6344 -0.0000
vn -0.8819 0.4714 -0.0000
vn -0.9569 0.2903 -0.0000
vn -0.9952 0.0980 -0.0000
vt 1.000000 0.500000
vt 1.000000 0.590909
vt 0.968750 0.590909
vt 0.968750 0.500000
vt 0.937500 0.590909
vt 0.937500 0.500000
vt 0.906250 0.590909
vt 0.906250 0.500000
vt 0.875000 0.590909
vt 0.875000 0.500000
vt 0.843750 0.590909
vt 0.843750 0.500000
vt 0.812500 0.590909
vt 0.812500 0.500000
vt 0.781250 0.590909
vt 0.781250 0.500000
vt 0.750000 0.590909
vt 0.750000 0.500000
vt 0.718750 0.590909
vt 0.718750 0.500000
vt 0.687500 0.590909
vt 0.687500 0.500000
vt 0.656250 0.590909
vt 0.656250 0.500000
vt 0.629278 0.583668
vt 0.625000 0.500000
vt 0.593750 0.590909
vt 0.593750 0.500000
vt 0.562500 0.590909
vt 0.562500 0.500000
vt 0.531250 0.590909
vt 0.531250 0.500000
vt 0.500000 0.590909
vt 0.500000 0.500000
vt 0.468750 0.590909
vt 0.468750 0.500000
vt 0.437500 0.590909
vt 0.437500 0.500000
vt 0.406250 0.590909
vt 0.406250 0.500000
vt 0.375000 0.590909
vt 0.375000 0.500000
vt 0.343750 0.590909
vt 0.343750 0.500000
vt 0.312500 0.590909
vt 0.312500 0.500000
vt 0.281250 0.590909
vt 0.281250 0.500000
vt 0.250000 0.590909
vt 0.250000 0.500000
vt 0.218750 0.590909
vt 0.218750 0.500000
vt 0.187500 0.590909
vt 0.187500 0.500000
vt 0.151972 0.583668
vt 0.156250 0.500000
vt 0.125000 0.590909
vt 0.125000 0.500000
vt 0.093750 0.590909
vt 0.093750 0.500000
vt 0.062500 0.590909
vt 0.062500 0.500000
vt 0.031250 0.590909
vt 0.031250 0.500000
vt 0.000000 0.590909
vt 0.000000 0.500000
s 0
f 1/1/1 2/2/1 4/3/1 3/4/1
f 3/4/2 4/3/2 6/5/2 5/6/2
f 5/6/3 6/5/3 8/7/3 7/8/3
f 7/8/4 8/7/4 10/9/4 9/10/4
f 9/10/5 10/9/5 12/11/5 11/12/5
f 11/12/6 12/11/6 14/13/6 13/14/6
f 13/14/7 14/13/7 16/15/7 15/16/7
f 15/16/8 16/15/8 18/17/8 17/18/8
f 17/18/9 18/17/9 20/19/9 19/20/9
f 19/20/10 20/19/10 22/21/10 21/22/10
f 21/22/11 22/21/11 24/23/11 23/24/11
f 23/24/12 24/23/12 26/25/12 25/26/12
f 25/26/13 26/25/13 28/27/13 27/28/13
f 27/28/14 28/27/14 30/29/14 29/30/14
f 29/30/15 30/29/15 32/31/15 31/32/15
f 31/32/16 32/31/16 34/33/16 33/34/16
f 33/34/17 34/33/17 36/35/17 35/36/17
f 35/36/18 36/35/18 38/37/18 37/38/18
f 37/38/19 38/37/19 40/39/19 39/40/19
f 39/40/20 40/39/20 42/41/20 41/42/20
f 41/42/21 42/41/21 44/43/21 43/44/21
f 43/44/22 44/43/22 46/45/22 45/46/22
f 45/46/23 46/45/23 48/47/23 47/48/23
f 47/48/24 48/47/24 50/49/24 49/50/24
f 49/50/25 50/49/25 52/51/25 51/52/25
f 51/52/26 52/51/26 54/53/26 53/54/26
f 53/54/27 54/53/27 56/55/27 55/56/27
f 55/56/28 56/55/28 58/57/28 57/58/28
f 57/58/29 58/57/29 60/59/29 59/60/29
f 59/60/30 60/59/30 62/61/30 61/62/30
f 61/62/31 62/61/31 64/63/31 63/64/31
f 63/64/32 64/63/32 2/65/32 1/66/32
